<svg width="44" height="44" viewBox="0 0 44 44" fill="none" xmlns="http://www.w3.org/2000/svg">
<mask id="path-1-inside-1_2092_343" fill="white">
<path d="M0 0H40C42.2091 0 44 1.79086 44 4V40C44 42.2091 42.2091 44 40 44H0V0Z"/>
</mask>
<path d="M0 0H40C42.2091 0 44 1.79086 44 4V40C44 42.2091 42.2091 44 40 44H0V0Z" fill="white"/>
<path d="M0 -0.5H40C42.4853 -0.5 44.5 1.51472 44.5 4H43.5C43.5 2.067 41.933 0.5 40 0.5H0V-0.5ZM44.5 40C44.5 42.4853 42.4853 44.5 40 44.5H0V43.5H40C41.933 43.5 43.5 41.933 43.5 40H44.5ZM43.5 40M0 44V0V44M40 -0.5C42.4853 -0.5 44.5 1.51472 44.5 4V40C44.5 42.4853 42.4853 44.5 40 44.5V43.5C41.933 43.5 43.5 41.933 43.5 40V4C43.5 2.067 41.933 0.5 40 0.5V-0.5Z" fill="#575757" mask="url(#path-1-inside-1_2092_343)"/>
<path d="M16 22H28M22.0001 16L22.0001 28" stroke="#575757" stroke-width="1.5"/>
</svg>
